<?xml version="1.0" encoding="utf-8"?>
<!-- Generator: Adobe Illustrator 27.7.0, SVG Export Plug-In . SVG Version: 6.00 Build 0)  -->
<svg version="1.1" id="图层_1" xmlns="http://www.w3.org/2000/svg" xmlns:xlink="http://www.w3.org/1999/xlink" x="0px" y="0px"
	 viewBox="0 0 200 200" style="enable-background:new 0 0 200 200;" xml:space="preserve">
<style type="text/css">
	.st0{fill:#F7545A;}
</style>
<path class="st0" d="M111.1,123.9c-9,0-17.9-3.4-24.8-10.2c-1.9-1.9-1.9-4.9,0-6.7c1.9-1.9,4.9-1.9,6.7,0c10,10,26.1,10,36.1,0
	l34.6-34.6c10-10,10-26.1,0-36.1c-10-10-26.1-10-36.1,0L98.4,65.5c-1.9,1.9-4.9,1.9-6.7,0c-1.9-1.9-1.9-4.9,0-6.7l29.2-29.2
	c13.7-13.7,35.9-13.7,49.5,0c13.7,13.7,13.7,35.9,0,49.5l-34.6,34.6C129,120.5,120,123.9,111.1,123.9L111.1,123.9L111.1,123.9z
	 M54,181c-9,0-17.9-3.4-24.8-10.2c-13.7-13.7-13.7-35.9,0-49.5l34.6-34.6c13.7-13.7,35.9-13.7,49.5,0c1.9,1.9,1.9,4.9,0,6.7
	c-1.9,1.9-4.9,1.9-6.7,0c-10-10-26.1-10-36.1,0L35.9,128c-10,10-10,26.1,0,36.1c10,10,26.1,10,36.1,0l29.2-29.2
	c1.9-1.9,4.9-1.9,6.7,0c1.9,1.9,1.9,4.9,0,6.7l-29.2,29.2C71.9,177.6,63,181,54,181L54,181z"/>
</svg>
